<?xml version="1.0" encoding="UTF-8"?><svg width="54px" height="54px" enable-background="new 0 0 64 64" version="1.0" viewBox="0 0 64 64" xml:space="preserve" xmlns="http://www.w3.org/2000/svg"><path d="m62 35.998v-8c0-1.104-0.896-2-2-2h-6s-1.035-0.677-1.147-1.01c-0.112-0.334-0.231-0.664-0.359-0.99-0.11-0.281-0.225-0.561-0.346-0.836-0.155-0.354-0.319-0.703-0.492-1.047-0.144-0.283-0.397-0.891 0.345-1.633s4.043-4.043 4.043-4.043c0.779-0.781 0.779-2.047-2e-3 -2.83l-5.657-5.656c-0.782-0.781-2.048-0.779-2.828 0 0 0-3.175 3.176-4.026 4.027s-1.425 0.473-1.74 0.316c-0.314-0.157-0.634-0.307-0.957-0.448-0.274-0.121-0.552-0.234-0.832-0.344-0.367-0.144-0.738-0.276-1.114-0.401-0.295-0.095-0.888-0.121-0.888-1.105s0-6.002 0-6.002c-1e-3 -1.104-0.896-1.999-2.002-2h-8c-1.105 0-1.999 0.896-2 2 0 0 2e-3 5.002 2e-3 6.002s-0.714 1.047-1.064 1.166c-0.315 0.106-0.628 0.221-0.938 0.342-0.28 0.109-0.558 0.223-0.832 0.344-0.346 0.152-0.688 0.312-1.023 0.48-0.292 0.146-0.751 0.573-1.634-0.31s-4.065-4.065-4.065-4.065c-0.781-0.78-2.048-0.78-2.829 1e-3l-5.657 5.657c-0.781 0.781-0.78 2.047 0 2.828l4.042 4.042s0.438 1.444 0.274 1.776c-0.147 0.297-0.288 0.599-0.422 0.904-0.121 0.275-0.235 0.553-0.345 0.834-0.128 0.326-0.247 0.656-0.359 0.99-0.112 0.333-0.272 1.01-1.147 1.01s-6 0-6 0c-1.104 0-2 0.896-2 2v8c0 1.104 0.896 2 2 2h6s1.035 0.677 1.147 1.01c0.112 0.334 0.231 0.664 0.359 0.99 0.11 0.281 0.225 0.561 0.346 0.836 0.155 0.354 0.319 0.703 0.492 1.047 0.144 0.283 0.397 0.891-0.345 1.633s-4.043 4.043-4.043 4.043c-0.779 0.781-0.779 2.047 2e-3 2.83l5.657 5.656c0.782 0.781 2.048 0.779 2.828 0 0 0 3.175-3.176 4.026-4.027s1.425-0.473 1.74-0.316c0.314 0.157 0.634 0.307 0.957 0.448 0.274 0.121 0.552 0.234 0.832 0.344 0.367 0.144 0.738 0.276 1.114 0.401 0.294 0.096 0.887 0.122 0.887 1.106s0 6.002 0 6.002c1e-3 1.104 0.896 1.999 2.002 2h8c1.105 0 1.999-0.896 2-2 0 0-2e-3 -5.002-2e-3 -6.002s0.714-1.047 1.064-1.166c0.315-0.106 0.628-0.221 0.938-0.342 0.28-0.109 0.558-0.223 0.832-0.344 0.346-0.152 0.688-0.312 1.023-0.48 0.292-0.146 0.751-0.573 1.634 0.31s4.065 4.065 4.065 4.065c0.781 0.78 2.048 0.78 2.829-1e-3l5.657-5.657c0.781-0.781 0.78-2.047 0-2.828l-4.042-4.042s-0.438-1.444-0.274-1.776c0.147-0.297 0.288-0.599 0.422-0.904 0.121-0.275 0.235-0.553 0.345-0.834 0.128-0.326 0.247-0.656 0.359-0.99 0.112-0.333 0.272-1.01 1.147-1.01s6 0 6 0c1.105-1e-3 2.001-0.896 2.001-2.001zm-30 10c-7.732 0-14-6.268-14-14s6.268-14 14-14 14 6.268 14 14-6.268 14-14 14z" fill="#4bc1d2"/></svg>